<?xml version="1.0" encoding="UTF-8" standalone="no"?>
<svg
   xmlns:dc="http://purl.org/dc/elements/1.1/"
   xmlns:cc="http://creativecommons.org/ns#"
   xmlns:rdf="http://www.w3.org/1999/02/22-rdf-syntax-ns#"
   xmlns:svg="http://www.w3.org/2000/svg"
   xmlns="http://www.w3.org/2000/svg"
   xmlns:xlink="http://www.w3.org/1999/xlink"
   xmlns:sodipodi="http://sodipodi.sourceforge.net/DTD/sodipodi-0.dtd"
   xmlns:inkscape="http://www.inkscape.org/namespaces/inkscape"
   width="512"
   height="512"
   version="1.1"
   id="svg2"
   inkscape:version="0.91 r13725"
   sodipodi:docname="google_play_icon.svg"
   inkscape:export-filename="/Users/markus/google_play_icon.png"
   inkscape:export-xdpi="90"
   inkscape:export-ydpi="90">
  <metadata
     id="metadata32">
    <rdf:RDF>
      <cc:Work
         rdf:about="">
        <dc:format>image/svg+xml</dc:format>
        <dc:type
           rdf:resource="http://purl.org/dc/dcmitype/StillImage" />
        <dc:title></dc:title>
      </cc:Work>
    </rdf:RDF>
  </metadata>
  <defs
     id="defs30">
    <linearGradient
       inkscape:collect="always"
       id="linearGradient4162">
      <stop
         style="stop-color:#1c5493;stop-opacity:1;"
         offset="0"
         id="stop4164" />
      <stop
         style="stop-color:#3e87da;stop-opacity:1"
         offset="1"
         id="stop4166" />
    </linearGradient>
    <linearGradient
       inkscape:collect="always"
       xlink:href="#linearGradient4162"
       id="linearGradient4168"
       x1="260.8855"
       y1="-4.8854961"
       x2="260.8855"
       y2="-512"
       gradientUnits="userSpaceOnUse" />
  </defs>
  <sodipodi:namedview
     pagecolor="#ffffff"
     bordercolor="#666666"
     borderopacity="1"
     objecttolerance="10"
     gridtolerance="10"
     guidetolerance="10"
     inkscape:pageopacity="0"
     inkscape:pageshadow="2"
     inkscape:window-width="1173"
     inkscape:window-height="781"
     id="namedview28"
     showgrid="false"
     inkscape:zoom="0.51171875"
     inkscape:cx="256"
     inkscape:cy="256"
     inkscape:window-x="0"
     inkscape:window-y="0"
     inkscape:window-maximized="0"
     inkscape:current-layer="svg2" />
  <rect
     style="opacity:0.93999999;fill:url(#linearGradient4168);fill-opacity:1;stroke:none;stroke-width:1;stroke-linecap:butt;stroke-linejoin:miter;stroke-miterlimit:4;stroke-dasharray:none;stroke-dashoffset:0;stroke-opacity:1"
     id="rect4144"
     width="512"
     height="512"
     x="0"
     y="-512"
     transform="scale(1,-1)" />
  <g
     transform="matrix(5.8602098,0,0,6.0609419,-60.451319,-5795.0156)"
     id="g4">
    <path
       d="m 32.77708,1026.1443 c -0.685966,0.6517 -0.02708,2.4933 0.559436,2.2294 8.314739,-3.4083 16.608631,-5.1456 25.444521,-6.6882 5.266268,-1.0101 10.693061,-1.7128 15.627192,-3.9117 8.233519,-4.5256 3.07578,-6.5253 0.877761,-5.3682 -7.59564,2.0611 -34.288986,11.0772 -42.50891,13.7387 z"
       style="fill:#404040;fill-opacity:1;stroke:none"
       id="path6"
       inkscape:connector-curvature="0" />
    <path
       style="fill:#4d4d4d;stroke:none"
       d="m 24.674129,1012.1051 1.488481,-3.7315 19.50574,-3.2189 z"
       id="path8"
       inkscape:connector-curvature="0" />
    <path
       style="fill:#f2f2f2;fill-opacity:1;stroke:none"
       d="m 49.225226,967.88621 c -1.010866,0.2671 -2.040685,0.57963 -3.088975,0.94217 -11.302128,3.90863 -18.962471,13.90242 -21.883681,25.08929 6.08321,-1.63098 10.322564,-2.74996 16.399686,-4.40359 1.482183,-0.41828 3.069146,-0.92065 4.579863,-0.35468 1.600951,0.54092 2.203713,2.3923 2.333648,3.92894 0.331653,4.8195 -2.363241,9.55166 -6.364347,12.13496 -5.973808,3.4744 -10.846268,4.7071 -17.498953,6.4554 1.266148,6.0756 4.120429,11.7455 8.746275,16.2107 30.065797,-12.3348 48.716988,-3.1206 52.317848,-26.7315 2.77194,-18.17538 -10.674017,-39.84185 -35.541371,-33.27171 z"
       id="path10"
       inkscape:connector-curvature="0" />
    <path
       style="opacity:1;fill:#000000;fill-opacity:0.1254902;stroke:none"
       d="m 24.903544,991.76314 c -0.227969,0.71035 -0.435952,1.42646 -0.624999,2.14757 6.067747,-1.62683 10.306228,-2.74556 16.373711,-4.39663 1.482183,-0.41828 3.069146,-0.92065 4.579863,-0.35468 1.600969,0.54092 2.203713,2.3923 2.333648,3.92894 0.331653,4.8195 -2.363262,9.55166 -6.364347,12.13496 -5.970238,3.4723 -10.840829,4.7057 -17.487407,6.4523 0.130927,0.6279 0.277225,1.2521 0.442495,1.8708 1.463441,-0.3887 2.857147,-0.7587 4.216853,-1.1206 0.424915,0.4052 1.444503,0.5102 2.542303,0.2161 1.104644,-0.296 1.939065,-0.9022 2.097127,-1.4685 10.887781,-3.0081 17.849483,-5.5873 21.291157,-10.9275 4.509988,-6.99753 3.469851,-17.29033 -5.660499,-14.84386 l -23.739908,6.36109 z"
       id="path12"
       inkscape:connector-curvature="0" />
    <circle
       r="2.4369595"
       cy="969.89502"
       cx="-206.17021"
       style="fill:#4d4d4d;fill-opacity:1;fill-rule:nonzero;stroke:none"
       transform="matrix(0.96592582,-0.25881905,0.25881905,0.96592582,0,0)"
       id="circle14" />
    <path
       d="m 24.880845,988.58145 c -3.081078,6.76499 -4.326393,14.34735 -3.280495,21.54775 16.457663,-2.3676 26.446421,-3.5744 31.492022,-9.6966 5.294718,-6.42427 5.461153,-16.76812 -3.892075,-15.40233 l -24.319452,3.55118 z"
       style="opacity:1;fill:#333333;fill-opacity:0.8627451;stroke:none"
       id="path16"
       inkscape:connector-curvature="0" />
    <circle
       r="1.6612207"
       cy="969.89502"
       cx="-206.17026"
       transform="matrix(0.96592582,-0.25881906,0.25881906,0.96592582,0,0)"
       style="fill:#f2f2f2;fill-opacity:1;fill-rule:nonzero;stroke:none"
       id="circle18" />
    <rect
       style="fill:#202020;fill-opacity:1;fill-rule:nonzero;stroke:none"
       width="14.579134"
       height="18.590975"
       x="56.256527"
       y="1011.4495"
       rx="0.94218898"
       ry="0.94218898"
       id="rect20" />
    <rect
       ry="0.94218898"
       rx="0.94218898"
       y="1011.4495"
       x="72.184196"
       height="18.590975"
       width="14.579134"
       style="fill:#202020;fill-opacity:1;fill-rule:nonzero;stroke:none"
       id="rect22" />
    <path
       style="color:#000000;font-style:normal;font-variant:normal;font-weight:normal;font-stretch:normal;font-size:medium;line-height:normal;font-family:sans-serif;text-indent:0;text-align:start;text-decoration:none;text-decoration-line:none;text-decoration-style:solid;text-decoration-color:#000000;letter-spacing:normal;word-spacing:normal;text-transform:none;direction:ltr;block-progression:tb;writing-mode:lr-tb;baseline-shift:baseline;text-anchor:start;white-space:normal;clip-rule:nonzero;display:inline;overflow:visible;visibility:visible;opacity:1;isolation:auto;mix-blend-mode:normal;color-interpolation:sRGB;color-interpolation-filters:linearRGB;solid-color:#000000;solid-opacity:1;fill:#ffffff;fill-opacity:1;fill-rule:nonzero;stroke:none;stroke-width:1.84966445;stroke-linecap:round;stroke-linejoin:round;stroke-miterlimit:4;stroke-dasharray:none;stroke-dashoffset:0;stroke-opacity:1;color-rendering:auto;image-rendering:auto;shape-rendering:auto;text-rendering:auto;enable-background:accumulate"
       d="m 60.923828,1014.3008 c -0.933238,0 -1.714844,0.7796 -1.714844,1.7129 l 0,9.4629 c 0,0.9332 0.781606,1.7129 1.714844,1.7129 l 5.244141,0 c 0.933238,0 1.714843,-0.7797 1.714843,-1.7129 l 0,-9.4629 c 0,-0.9333 -0.781605,-1.7129 -1.714843,-1.7129 l -5.244141,0 z m 0.134766,1.8496 4.974609,0 0,9.1894 -4.974609,0 0,-9.1894 z"
       id="path24"
       inkscape:connector-curvature="0" />
    <path
       style="color:#000000;font-style:normal;font-variant:normal;font-weight:normal;font-stretch:normal;font-size:medium;line-height:normal;font-family:sans-serif;text-indent:0;text-align:start;text-decoration:none;text-decoration-line:none;text-decoration-style:solid;text-decoration-color:#000000;letter-spacing:normal;word-spacing:normal;text-transform:none;direction:ltr;block-progression:tb;writing-mode:lr-tb;baseline-shift:baseline;text-anchor:start;white-space:normal;clip-rule:nonzero;display:inline;overflow:visible;visibility:visible;opacity:1;isolation:auto;mix-blend-mode:normal;color-interpolation:sRGB;color-interpolation-filters:linearRGB;solid-color:#000000;solid-opacity:1;fill:#ffffff;fill-opacity:1;fill-rule:nonzero;stroke:none;stroke-width:1.84966445;stroke-linecap:round;stroke-linejoin:round;stroke-miterlimit:4;stroke-dasharray:none;stroke-dashoffset:0;stroke-opacity:1;color-rendering:auto;image-rendering:auto;shape-rendering:auto;text-rendering:auto;enable-background:accumulate"
       d="m 80.757812,1014.3008 a 0.92492471,0.92492471 0 0 0 -0.505859,0.168 l -2.623047,1.8496 a 0.92499441,0.92499441 0 1 0 1.066406,1.5117 l 1.166016,-0.8223 0,9.2578 a 0.92492471,0.92492471 0 1 0 1.84961,0 l 0,-11.041 a 0.92492471,0.92492471 0 0 0 -0.953126,-0.9238 z"
       id="path26"
       inkscape:connector-curvature="0" />
  </g>
</svg>
