<?xml version="1.0" encoding="utf-8"?>
<svg width="90px" height="90px" id="svg3089" version="1.1" viewBox="0 0 90 90" xmlns="http://www.w3.org/2000/svg">
<path style="" d="M 56.212 55.665 C 53.501 56.873 38.216 59.616 33.648 61.488 C 33.509 61.55 33.197 61.207 33.16 61.222 C 30.618 58.769 29.05 55.654 28.355 52.316 C 28.593 52.254 37.649 48.955 37.968 48.769 C 40.167 47.35 41.647 44.75 41.465 42.103 C 41.394 41.258 41.062 40.241 40.183 39.944 C 40.07 39.902 28.866 42.502 28.657 42.558 C 30.262 36.412 34.47 30.922 40.68 28.774 C 41.256 28.575 41.821 28.404 42.377 28.257 C 56.039 24.647 63.426 36.551 61.903 46.536 C 61.38 49.965 59.71 54.415 56.212 55.665 Z" id="path-3"/>
<path style="fill: #00000080;" d="M 29.002 39.627 C 27.309 43.343 26.625 47.509 27.2 51.465 C 36.241 50.164 41.729 49.501 44.501 46.138 C 47.41 42.608 47.502 36.925 42.363 37.676 L 29.002 39.627 Z" id="path-13"/>
</svg>