<?xml version="1.0" encoding="utf-8"?>
<svg width="90px" height="90px" id="svg3089" version="1.1" viewBox="0 0 90 90" xmlns="http://www.w3.org/2000/svg" xmlns:xlink="http://www.w3.org/1999/xlink">
<defs id="defs3091">
<linearGradient id="linearGradient4529">
<stop id="stop4531" offset="0" style="stop-color:#404040;stop-opacity:1;"/>
<stop id="stop4533" offset="1" style="stop-color:#606060;stop-opacity:1;"/>
</linearGradient>
<linearGradient id="linearGradient4747" gradientUnits="userSpaceOnUse" x1="5532.7593" y1="-1254.035" x2="5549.5576" y2="-1287.2535" gradientTransform="matrix(0.063689, 0, 0, 0.063689, 5188.382453, -1190.577889)" xlink:href="#linearGradient4529"/>
</defs>
<path style="" d="M 33.34 60.263 C 32.963 60.621 33.325 61.633 33.648 61.488 C 38.216 59.616 42.772 58.661 47.627 57.814 C 50.52 57.259 53.501 56.873 56.212 55.665 C 60.736 53.178 57.902 52.08 56.694 52.715 C 52.521 53.848 37.856 58.801 33.34 60.263 Z" id="path4717"/>
<path id="path4719" d="M 28.889 52.55 L 29.706 50.5 L 40.423 48.732 L 44.073 42.658 L 40.993 39.54 L 30.122 42.453 C 29.184 42.704 29.194 42.283 29.173 42.001 L 44.686 37.701 L 45.74 47.974 Z" style=""/>
<path id="path4721" d="M 42.377 28.257 C 41.821 28.404 41.256 28.575 40.68 28.774 C 34.47 30.922 30.262 36.412 28.657 42.558 C 31.999 41.662 34.328 41.047 37.667 40.139 C 38.481 39.909 39.353 39.633 40.183 39.944 C 41.062 40.241 41.394 41.258 41.465 42.103 C 41.647 44.75 40.167 47.35 37.968 48.769 C 34.686 50.678 32.01 51.356 28.355 52.316 C 29.05 55.654 30.618 58.769 33.16 61.222 C 49.678 54.445 59.925 59.508 61.903 46.536 C 63.426 36.551 56.039 24.647 42.377 28.257 Z" style=""/>
<circle transform="matrix(0.965926, -0.258819, 0.258819, 0.965926, -4979.547867, 2702.949801)" id="path4725" style="fill:url(#linearGradient4747);fill-opacity:1;fill-rule:nonzero;stroke:none" cx="5541.304" cy="-1271.563" r="1.339"/>
<path style="fill: rgb(255, 255, 255);" d="M 29.002 39.627 C 27.309 43.343 26.625 47.509 27.2 51.465 C 36.241 50.164 41.729 49.501 44.501 46.138 C 47.41 42.608 47.502 36.925 42.363 37.676 L 29.002 39.627 Z" id="path4727"/>
<circle style="" id="path4731" cx="43.836" cy="40.52" r="0.913"/>
<path d="M 46.757 52.19 L 53.732 52.19 C 54.018 52.19 54.249 52.422 54.249 52.708 L 54.249 61.886 C 54.249 62.172 54.018 62.404 53.732 62.404 L 46.757 62.404 C 46.472 62.404 46.24 62.172 46.24 61.886 L 46.24 52.708 C 46.24 52.422 46.472 52.19 46.757 52.19 Z" id="rect4393" style="fill: rgb(255, 255, 255);"/>
<path d="M 55.508 52.19 L 62.482 52.19 C 62.768 52.19 63 52.422 63 52.708 L 63 61.886 C 63 62.172 62.768 62.404 62.482 62.404 L 55.508 62.404 C 55.222 62.404 54.99 62.172 54.99 61.886 L 54.99 52.708 C 54.99 52.422 55.222 52.19 55.508 52.19 Z" style="fill: rgb(255, 255, 255);" id="rect4396"/>
<path d="M 48.804 54.264 L 51.686 54.264 C 51.925 54.264 52.119 54.458 52.119 54.698 L 52.119 59.896 C 52.119 60.135 51.925 60.329 51.686 60.329 L 48.804 60.329 C 48.564 60.329 48.37 60.135 48.37 59.896 L 48.37 54.698 C 48.37 54.458 48.564 54.264 48.804 54.264 Z" id="rect4398" style="fill: none; stroke-linecap: round; stroke-linejoin: round; stroke-miterlimit: 4; stroke-dasharray: none; stroke-dashoffset: 0; stroke-opacity: 1; stroke: rgb(0, 0, 0);"/>
<path id="path4400" d="M 59.716 60.329 L 59.716 54.264 L 58.274 55.281" style="fill: none; stroke-linecap: round; stroke-linejoin: round; stroke-miterlimit: 4; stroke-dasharray: none; stroke-opacity: 1; stroke: rgb(0, 0, 0);"/>
</svg>