<?xml version="1.0" encoding="utf-8"?>
<svg width="200" height="200" id="svg3089" version="1.1" xmlns="http://www.w3.org/2000/svg">
<path style="opacity:1;fill:#000000;fill-opacity:0.09803922;stroke:none" d="M 114.398 7.921 C 106.216 7.923 97.471 9.057 88.195 11.508 C 85.179 12.305 82.104 13.239 78.976 14.321 C 45.251 25.984 22.392 55.802 13.675 89.184 C 13.705 89.176 13.727 89.173 13.757 89.165 C 14.969 88.84 15.861 88.601 17.027 88.289 C 17.601 89.011 18.842 89.361 21.637 88.613 L 74.43 74.467 C 75.051 74.587 75.664 74.757 76.278 74.987 C 81.055 76.601 82.855 82.129 83.243 86.714 C 83.954 97.051 80.001 107.249 73.287 115.032 C 72.996 115.37 72.701 115.706 72.398 116.035 C 69.981 118.667 67.237 120.997 64.252 122.924 C 62.518 123.933 60.815 124.872 59.135 125.762 L 19.376 132.321 L 15.846 141.178 C 14.59 141.508 13.368 141.833 12.068 142.174 C 12.068 142.176 12.068 142.178 12.068 142.18 C 12.058 142.183 12.047 142.183 12.037 142.186 C 15.815 160.316 24.335 177.237 38.138 190.561 C 38.34 190.478 38.54 190.396 38.741 190.313 C 39.238 191.516 40.033 192.341 40.786 192.002 C 65.597 181.832 90.343 176.65 116.71 172.047 C 132.424 169.033 148.621 166.932 163.344 160.371 C 171.868 155.685 175.577 151.912 176.519 149.12 C 185.433 141.187 191.412 129.411 194.252 110.79 C 201.49 63.334 171.676 7.902 114.398 7.92 L 114.398 7.921 Z" id="path4483"/>
<path id="path4493" d="M 15.553 73.264 C 6.359 93.451 2.643 116.076 5.764 137.562 C 54.873 130.497 84.68 126.896 99.736 108.628 C 115.535 89.458 116.032 58.592 88.122 62.667 L 15.553 73.264 L 15.553 73.264 Z" style="opacity:1;fill:#000000;fill-opacity:0.09803922;stroke:none"/>
</svg>